<mxfile host="app.diagrams.net" modified="2023-12-01T09:37:34.409Z" agent="Mozilla/5.0 (Macintosh; Intel Mac OS X 10_15_7) AppleWebKit/605.1.15 (KHTML, like Gecko) Version/17.1 Safari/605.1.15" etag="NDAZW8p8OQLjDeYQ8rfk" version="22.1.5" type="device">
  <diagram name="Page-1" id="vQP9hLYBUp4dAKwmtIgp">
    <mxGraphModel dx="1224" dy="816" grid="1" gridSize="10" guides="1" tooltips="1" connect="1" arrows="1" fold="1" page="1" pageScale="1" pageWidth="827" pageHeight="1169" math="0" shadow="0">
      <root>
        <mxCell id="0" />
        <mxCell id="1" parent="0" />
        <mxCell id="5sTp34s6xaOkSB6APpt8-3" style="edgeStyle=orthogonalEdgeStyle;rounded=0;orthogonalLoop=1;jettySize=auto;html=1;" edge="1" parent="1" source="5sTp34s6xaOkSB6APpt8-1" target="5sTp34s6xaOkSB6APpt8-2">
          <mxGeometry relative="1" as="geometry" />
        </mxCell>
        <mxCell id="5sTp34s6xaOkSB6APpt8-1" value="Start" style="ellipse;whiteSpace=wrap;html=1;" vertex="1" parent="1">
          <mxGeometry x="389" y="40" width="50" height="40" as="geometry" />
        </mxCell>
        <mxCell id="5sTp34s6xaOkSB6APpt8-5" style="edgeStyle=orthogonalEdgeStyle;rounded=0;orthogonalLoop=1;jettySize=auto;html=1;entryX=0.5;entryY=0;entryDx=0;entryDy=0;" edge="1" parent="1" source="5sTp34s6xaOkSB6APpt8-2" target="5sTp34s6xaOkSB6APpt8-4">
          <mxGeometry relative="1" as="geometry" />
        </mxCell>
        <mxCell id="5sTp34s6xaOkSB6APpt8-2" value="Initialize&lt;br&gt;Variables" style="rounded=0;whiteSpace=wrap;html=1;" vertex="1" parent="1">
          <mxGeometry x="354" y="120" width="120" height="60" as="geometry" />
        </mxCell>
        <mxCell id="5sTp34s6xaOkSB6APpt8-7" style="edgeStyle=orthogonalEdgeStyle;rounded=0;orthogonalLoop=1;jettySize=auto;html=1;entryX=0.5;entryY=0;entryDx=0;entryDy=0;" edge="1" parent="1" source="5sTp34s6xaOkSB6APpt8-4" target="5sTp34s6xaOkSB6APpt8-6">
          <mxGeometry relative="1" as="geometry" />
        </mxCell>
        <mxCell id="5sTp34s6xaOkSB6APpt8-4" value="Create&lt;br&gt;Array" style="rounded=0;whiteSpace=wrap;html=1;" vertex="1" parent="1">
          <mxGeometry x="354" y="230" width="120" height="60" as="geometry" />
        </mxCell>
        <mxCell id="5sTp34s6xaOkSB6APpt8-9" style="edgeStyle=orthogonalEdgeStyle;rounded=0;orthogonalLoop=1;jettySize=auto;html=1;entryX=0.5;entryY=0;entryDx=0;entryDy=0;" edge="1" parent="1" source="5sTp34s6xaOkSB6APpt8-6" target="5sTp34s6xaOkSB6APpt8-8">
          <mxGeometry relative="1" as="geometry" />
        </mxCell>
        <mxCell id="5sTp34s6xaOkSB6APpt8-6" value="Loop through the Array" style="rounded=0;whiteSpace=wrap;html=1;" vertex="1" parent="1">
          <mxGeometry x="354" y="340" width="120" height="60" as="geometry" />
        </mxCell>
        <mxCell id="5sTp34s6xaOkSB6APpt8-11" style="edgeStyle=orthogonalEdgeStyle;rounded=0;orthogonalLoop=1;jettySize=auto;html=1;" edge="1" parent="1" source="5sTp34s6xaOkSB6APpt8-8" target="5sTp34s6xaOkSB6APpt8-10">
          <mxGeometry relative="1" as="geometry" />
        </mxCell>
        <mxCell id="5sTp34s6xaOkSB6APpt8-12" value="Yes" style="edgeLabel;html=1;align=center;verticalAlign=middle;resizable=0;points=[];" vertex="1" connectable="0" parent="5sTp34s6xaOkSB6APpt8-11">
          <mxGeometry x="-0.2713" y="-1" relative="1" as="geometry">
            <mxPoint as="offset" />
          </mxGeometry>
        </mxCell>
        <mxCell id="5sTp34s6xaOkSB6APpt8-16" style="edgeStyle=orthogonalEdgeStyle;rounded=0;orthogonalLoop=1;jettySize=auto;html=1;entryX=0.5;entryY=0;entryDx=0;entryDy=0;" edge="1" parent="1" source="5sTp34s6xaOkSB6APpt8-8" target="5sTp34s6xaOkSB6APpt8-15">
          <mxGeometry relative="1" as="geometry" />
        </mxCell>
        <mxCell id="5sTp34s6xaOkSB6APpt8-8" value="Check&lt;br&gt;the&lt;br&gt;number &amp;gt; 0" style="rhombus;whiteSpace=wrap;html=1;" vertex="1" parent="1">
          <mxGeometry x="349" y="450" width="130" height="100" as="geometry" />
        </mxCell>
        <mxCell id="5sTp34s6xaOkSB6APpt8-24" style="edgeStyle=orthogonalEdgeStyle;rounded=0;orthogonalLoop=1;jettySize=auto;html=1;entryX=0;entryY=0.5;entryDx=0;entryDy=0;" edge="1" parent="1" source="5sTp34s6xaOkSB6APpt8-10" target="5sTp34s6xaOkSB6APpt8-23">
          <mxGeometry relative="1" as="geometry">
            <Array as="points">
              <mxPoint x="50" y="500" />
              <mxPoint x="50" y="850" />
            </Array>
          </mxGeometry>
        </mxCell>
        <mxCell id="5sTp34s6xaOkSB6APpt8-10" value="Display Counts" style="shape=parallelogram;perimeter=parallelogramPerimeter;whiteSpace=wrap;html=1;fixedSize=1;" vertex="1" parent="1">
          <mxGeometry x="90" y="470" width="120" height="60" as="geometry" />
        </mxCell>
        <mxCell id="5sTp34s6xaOkSB6APpt8-18" style="edgeStyle=orthogonalEdgeStyle;rounded=0;orthogonalLoop=1;jettySize=auto;html=1;entryX=1;entryY=0.5;entryDx=0;entryDy=0;" edge="1" parent="1" source="5sTp34s6xaOkSB6APpt8-15" target="5sTp34s6xaOkSB6APpt8-17">
          <mxGeometry relative="1" as="geometry" />
        </mxCell>
        <mxCell id="5sTp34s6xaOkSB6APpt8-21" style="edgeStyle=orthogonalEdgeStyle;rounded=0;orthogonalLoop=1;jettySize=auto;html=1;entryX=1;entryY=0.5;entryDx=0;entryDy=0;" edge="1" parent="1" source="5sTp34s6xaOkSB6APpt8-15" target="5sTp34s6xaOkSB6APpt8-20">
          <mxGeometry relative="1" as="geometry">
            <Array as="points">
              <mxPoint x="645" y="740" />
            </Array>
          </mxGeometry>
        </mxCell>
        <mxCell id="5sTp34s6xaOkSB6APpt8-15" value="Check&lt;br&gt;if even" style="rhombus;whiteSpace=wrap;html=1;" vertex="1" parent="1">
          <mxGeometry x="580" y="580" width="130" height="100" as="geometry" />
        </mxCell>
        <mxCell id="5sTp34s6xaOkSB6APpt8-19" style="edgeStyle=orthogonalEdgeStyle;rounded=0;orthogonalLoop=1;jettySize=auto;html=1;" edge="1" parent="1" source="5sTp34s6xaOkSB6APpt8-17" target="5sTp34s6xaOkSB6APpt8-10">
          <mxGeometry relative="1" as="geometry" />
        </mxCell>
        <mxCell id="5sTp34s6xaOkSB6APpt8-17" value="Increment&lt;br&gt;even count" style="rounded=0;whiteSpace=wrap;html=1;" vertex="1" parent="1">
          <mxGeometry x="354" y="600" width="120" height="60" as="geometry" />
        </mxCell>
        <mxCell id="5sTp34s6xaOkSB6APpt8-22" style="edgeStyle=orthogonalEdgeStyle;rounded=0;orthogonalLoop=1;jettySize=auto;html=1;" edge="1" parent="1" source="5sTp34s6xaOkSB6APpt8-20">
          <mxGeometry relative="1" as="geometry">
            <mxPoint x="150" y="630" as="targetPoint" />
          </mxGeometry>
        </mxCell>
        <mxCell id="5sTp34s6xaOkSB6APpt8-20" value="Increment&lt;br&gt;odd count" style="rounded=0;whiteSpace=wrap;html=1;" vertex="1" parent="1">
          <mxGeometry x="354" y="710" width="120" height="60" as="geometry" />
        </mxCell>
        <mxCell id="5sTp34s6xaOkSB6APpt8-23" value="Stop" style="ellipse;whiteSpace=wrap;html=1;" vertex="1" parent="1">
          <mxGeometry x="389" y="830" width="50" height="40" as="geometry" />
        </mxCell>
      </root>
    </mxGraphModel>
  </diagram>
</mxfile>
